<svg width="75" height="75" viewBox="0 0 75 75" fill="none" xmlns="http://www.w3.org/2000/svg">
<circle cx="37.5" cy="37.5" r="37.5" fill="#C4C4C4"/>
<g clip-path="url(#clip0_402_41)">
<path d="M37.6243 22.8726H37.8413C39.8449 22.8799 49.9971 22.953 52.7344 23.6891C53.5619 23.9138 54.316 24.3517 54.9212 24.9591C55.5265 25.5665 55.9617 26.3221 56.1834 27.1504C56.4296 28.0766 56.6027 29.3027 56.7197 30.5677L56.7441 30.8212L56.7977 31.455L56.8172 31.7085C56.9756 33.9364 56.9951 36.0229 56.9976 36.4787V36.6615C56.9951 37.1344 56.9732 39.3622 56.7977 41.6827L56.7782 41.9387L56.7562 42.1922C56.6344 43.5864 56.454 44.9709 56.1834 45.9898C55.9624 46.8184 55.5274 47.5744 54.922 48.1819C54.3166 48.7894 53.5622 49.2271 52.7344 49.4511C49.9069 50.2116 39.1599 50.2652 37.6706 50.2676H37.3245C36.5713 50.2676 33.4562 50.253 30.1899 50.1409L29.7756 50.1262L29.5635 50.1165L29.1467 50.0994L28.7299 50.0824C26.0242 49.9629 23.4478 49.7704 22.2608 49.4486C21.4332 49.2248 20.679 48.7875 20.0736 48.1805C19.4683 47.5734 19.0331 46.818 18.8117 45.9898C18.5411 44.9734 18.3607 43.5864 18.2389 42.1922L18.2194 41.9362L18.1999 41.6827C18.0796 40.0311 18.0129 38.376 18 36.72L18 36.4202C18.0049 35.8961 18.0244 34.0851 18.156 32.0863L18.1731 31.8352L18.1804 31.7085L18.1999 31.455L18.2535 30.8212L18.2779 30.5677C18.3949 29.3027 18.5679 28.0742 18.8141 27.1504C19.0352 26.3217 19.4702 25.5658 20.0756 24.9583C20.6809 24.3508 21.4353 23.9131 22.2632 23.6891C23.4502 23.3722 26.0267 23.1772 28.7323 23.0554L29.1467 23.0383L29.5659 23.0237L29.7756 23.0164L30.1924 22.9993C32.5122 22.9247 34.8329 22.8832 37.1539 22.875H37.6243V22.8726ZM33.6 30.6969V42.4408L43.7327 36.5713L33.6 30.6969Z" fill="#1F1F1F"/>
</g>
<defs>
<clipPath id="clip0_402_41">
<rect width="39" height="39" fill="white" transform="translate(18 18)"/>
</clipPath>
</defs>
</svg>
