<svg width="75" height="75" viewBox="0 0 75 75" fill="none" xmlns="http://www.w3.org/2000/svg">
<circle cx="37.5" cy="37.5" r="37.5" fill="#C4C4C4"/>
<path d="M51.44 28.6848C46.52 21.0998 36.475 18.8448 28.685 23.5598C21.1 28.2748 18.64 38.5248 23.56 46.1098L23.97 46.7248L22.33 52.8748L28.48 51.2348L29.095 51.6448C31.76 53.0798 34.63 53.8998 37.5 53.8998C40.575 53.8998 43.65 53.0798 46.315 51.4398C53.9 46.5198 56.155 36.4748 51.44 28.6848V28.6848ZM47.135 44.4698C46.315 45.6998 45.29 46.5198 43.855 46.7248C43.035 46.7248 42.01 47.1348 37.91 45.4948C34.425 43.8548 31.555 41.1898 29.505 38.1148C28.275 36.6798 27.66 34.8348 27.455 32.9898C27.455 31.3498 28.07 29.9148 29.095 28.8898C29.505 28.4798 29.915 28.2748 30.325 28.2748H31.35C31.76 28.2748 32.17 28.2748 32.375 29.0948C32.785 30.1198 33.81 32.5798 33.81 32.7848C34.015 32.9898 34.015 33.3998 33.81 33.6048C34.015 34.0148 33.81 34.4248 33.605 34.6298C33.4 34.8348 33.195 35.2448 32.99 35.4498C32.58 35.6548 32.375 36.0648 32.58 36.4748C33.4 37.7048 34.425 38.9348 35.45 39.9598C36.68 40.9848 37.91 41.8048 39.345 42.4198C39.755 42.6248 40.165 42.6248 40.37 42.2148C40.575 41.8048 41.6 40.7798 42.01 40.3698C42.42 39.9598 42.625 39.9598 43.035 40.1648L46.315 41.8048C46.725 42.0098 47.135 42.2148 47.34 42.4198C47.545 43.0348 47.545 43.8548 47.135 44.4698V44.4698Z" fill="#1F1F1F"/>
</svg>
