<svg width="75" height="75" viewBox="0 0 75 75" fill="none" xmlns="http://www.w3.org/2000/svg">
<circle cx="37.5" cy="37.5" r="37.5" fill="#C4C4C4"/>
<path d="M37 32.012C33.7027 32.012 31.0119 34.7028 31.0119 38.0001C31.0119 41.2973 33.7027 43.9881 37 43.9881C40.2973 43.9881 42.9881 41.2973 42.9881 38.0001C42.9881 34.7028 40.2973 32.012 37 32.012ZM54.9598 38.0001C54.9598 35.5204 54.9822 33.0632 54.843 30.588C54.7037 27.713 54.0479 25.1614 51.9455 23.0591C49.8387 20.9522 47.2916 20.3008 44.4166 20.1616C41.9369 20.0223 39.4797 20.0448 37.0045 20.0448C34.5248 20.0448 32.0676 20.0223 29.5924 20.1616C26.7174 20.3008 24.1658 20.9567 22.0635 23.0591C19.9566 25.1659 19.3053 27.713 19.166 30.588C19.0268 33.0676 19.0492 35.5249 19.0492 38.0001C19.0492 40.4753 19.0268 42.937 19.166 45.4122C19.3053 48.2872 19.9611 50.8387 22.0635 52.9411C24.1703 55.0479 26.7174 55.6993 29.5924 55.8385C32.0721 55.9778 34.5293 55.9553 37.0045 55.9553C39.4842 55.9553 41.9414 55.9778 44.4166 55.8385C47.2916 55.6993 49.8432 55.0434 51.9455 52.9411C54.0524 50.8342 54.7037 48.2872 54.843 45.4122C54.9867 42.937 54.9598 40.4798 54.9598 38.0001V38.0001ZM37 47.2135C31.9014 47.2135 27.7865 43.0987 27.7865 38.0001C27.7865 32.9014 31.9014 28.7866 37 28.7866C42.0986 28.7866 46.2135 32.9014 46.2135 38.0001C46.2135 43.0987 42.0986 47.2135 37 47.2135ZM46.5908 30.561C45.4004 30.561 44.4391 29.5997 44.4391 28.4092C44.4391 27.2188 45.4004 26.2575 46.5908 26.2575C47.7813 26.2575 48.7426 27.2188 48.7426 28.4092C48.7429 28.6919 48.6875 28.9719 48.5795 29.2331C48.4715 29.4943 48.313 29.7317 48.1131 29.9316C47.9133 30.1314 47.6759 30.2899 47.4147 30.3979C47.1535 30.5059 46.8735 30.5614 46.5908 30.561V30.561Z" fill="#1F1F1F"/>
</svg>
