<?xml version="1.0" encoding="utf-8"?>
<!-- Generator: Adobe Illustrator 24.1.2, SVG Export Plug-In . SVG Version: 6.00 Build 0)  -->
<svg version="1.1" id="Слой_1" xmlns="http://www.w3.org/2000/svg" xmlns:xlink="http://www.w3.org/1999/xlink" x="0px" y="0px"
	 viewBox="0 0 1080 1080" style="enable-background:new 0 0 1080 1080;" xml:space="preserve">
<style type="text/css">
	.st0{fill:#C1272D;}
	.st1{fill:#212121;}
	.st2{fill:#FFFFFF;}
</style>
<path class="st0" d="M357.3,659.3c-0.2,0-63.9-11.2-43.5-47.9C340.9,562.6,465.6,466,807,379.3c-184.3,31.5-509.9,145.8-531.1,217.3
	c-14.9,50.4,31.7,60.9,60.5,62.7H357.3z"/>
<polygon class="st1" points="539.5,404.3 325.1,404.3 325.1,544.6 382.8,511.1 382.8,451.6 436.5,451.6 "/>
<path class="st1" d="M460.8,506h55.7l-5.5,44.4H383.4C383.4,550.4,423.3,521.2,460.8,506z"/>
<path class="st1" d="M769,394.6l-54.8,13l-84.5,91l-38.5-48.3l-51.9,23.2l52.7,65.7l-68.3,73.5l-141.4-0.3v-63.1
	c-14.8,10.7-22.3,15.4-31.5,23.5c-14.8,12.9-25.1,26-25.1,26v60.4h198.1l88.2-95.2l79.3,99l70.5,1L649.6,523.5L769,394.6z"/>
<g>
	<g>
		<path class="st2" d="M327.3,700.3h-1.8l8.5-19.1h1.3l8.5,19.1h-1.8l-2.3-5.1h-10.3L327.3,700.3z M334.7,683.8l-4.4,9.8h8.8
			L334.7,683.8L334.7,683.8z"/>
		<path class="st2" d="M373.9,700.3h-7.5v-19.1h6.8c0.8,0,1.6,0.1,2.4,0.3c0.8,0.2,1.5,0.5,2.1,0.8c0.7,0.4,1.2,0.9,1.6,1.6
			c0.4,0.7,0.6,1.5,0.6,2.4c0,0.7-0.1,1.3-0.3,1.8c-0.2,0.5-0.5,1-0.9,1.3c-0.4,0.3-0.7,0.6-1.1,0.8c-0.3,0.2-0.7,0.3-1,0.4v0
			c0.3,0.1,0.7,0.2,1.1,0.4c0.4,0.2,0.8,0.4,1.3,0.8c0.5,0.3,0.9,0.8,1.2,1.4c0.3,0.6,0.5,1.3,0.5,2.1c0,1.7-0.6,2.9-1.9,3.8
			C377.5,699.9,375.9,700.3,373.9,700.3z M368.1,682.7v7.2h5.9c1.3,0,2.3-0.3,3.2-0.9c0.8-0.6,1.2-1.5,1.2-2.6
			c0-1.2-0.5-2.2-1.4-2.8c-0.9-0.6-2.2-0.9-3.8-0.9H368.1z M368.1,691.4v7.4h5.7c3.5,0,5.2-1.2,5.2-3.6c0-1.2-0.5-2.1-1.4-2.8
			c-0.9-0.7-2.1-1-3.5-1H368.1z"/>
		<path class="st2" d="M410.1,700.3h-1.6v-17.6h-6.7v-1.5h14.9v1.5h-6.6V700.3z"/>
		<path class="st2" d="M454.6,697.8c-1.9,1.9-4.2,2.9-6.9,2.9c-2.7,0-5-1-6.9-2.9s-2.8-4.3-2.8-7c0-2.8,0.9-5.1,2.8-7
			c1.9-1.9,4.2-2.9,6.9-2.9c2.7,0,5.1,1,6.9,2.9c1.9,1.9,2.8,4.3,2.8,7C457.5,693.5,456.5,695.9,454.6,697.8z M441.9,696.7
			c1.6,1.7,3.5,2.5,5.8,2.5s4.2-0.8,5.8-2.5c1.6-1.6,2.4-3.6,2.4-5.9c0-2.3-0.8-4.3-2.4-5.9s-3.5-2.5-5.8-2.5s-4.2,0.8-5.8,2.5
			s-2.4,3.6-2.4,5.9C439.5,693.1,440.3,695,441.9,696.7z"/>
		<path class="st2" d="M479.2,697.8l1-1.2c1.6,1.7,3.7,2.5,6.1,2.5c1.8,0,3.2-0.4,4.1-1.1c0.9-0.7,1.4-1.7,1.4-2.9
			c0-1.2-0.5-2.1-1.4-2.8c-0.9-0.7-2.1-1.1-3.5-1.1h-4.2v-1.5h4.3c1.5,0,2.5-0.4,3.2-1.1c0.7-0.7,1-1.5,1-2.4c0-1.2-0.5-2.2-1.4-2.9
			c-0.9-0.7-2-1.1-3.3-1.1c-2.3,0-4.2,0.8-5.9,2.5l-1-1.1c0.9-0.9,1.9-1.6,3.1-2.1c1.2-0.5,2.5-0.8,3.7-0.8c1.7,0,3.1,0.5,4.4,1.4
			c1.3,1,1.9,2.3,1.9,3.9c0,1.2-0.3,2.2-0.9,2.9c-0.6,0.7-1.4,1.2-2.2,1.5v0c0.9,0.2,1.8,0.7,2.6,1.5c0.8,0.8,1.2,1.9,1.2,3.2
			c0,1.7-0.6,3-1.9,4c-1.3,1-3,1.4-5.2,1.4c-1.4,0-2.7-0.3-4-0.8C481.1,699.4,480.1,698.7,479.2,697.8z"/>
		<path class="st2" d="M516.7,700.3h-1.8l8.5-19.1h1.3l8.5,19.1h-1.8l-2.3-5.1H519L516.7,700.3z M524.1,683.8l-4.4,9.8h8.8
			L524.1,683.8L524.1,683.8z"/>
		<path class="st2" d="M557.4,700.3h-1.6v-19.1h14.5v19.1h-1.6v-17.6h-11.3V700.3z"/>
		<path class="st2" d="M608.9,700.3h-1.6v-7.9c-1.8,0.2-4.1,0.3-6.7,0.3c-1.7,0-3.1-0.5-4.1-1.4s-1.6-2.5-1.6-4.6v-5.5h1.6v5.5
			c0,1.4,0.3,2.5,1,3.3s1.8,1.2,3.4,1.2c2.7,0,4.8-0.1,6.5-0.3v-9.7h1.6V700.3z"/>
		<path class="st2" d="M633.2,700.3h-1.8l8.5-19.1h1.3l8.5,19.1H648l-2.3-5.1h-10.3L633.2,700.3z M640.6,683.8l-4.4,9.8h8.8
			L640.6,683.8L640.6,683.8z"/>
		<path class="st2" d="M686.7,696.3l1.1,1.2c-0.9,1-2,1.8-3.3,2.4c-1.3,0.6-2.6,0.9-4,0.9c-2.7,0-5-1-6.9-2.9
			c-1.9-1.9-2.8-4.3-2.8-7c0-2.8,0.9-5.1,2.8-7c1.9-1.9,4.2-2.9,6.9-2.9c1.4,0,2.7,0.3,4,0.9c1.3,0.6,2.4,1.4,3.3,2.4l-1.2,1.2
			c-0.7-0.8-1.6-1.5-2.7-2.1c-1.1-0.5-2.2-0.8-3.5-0.8c-2.3,0-4.2,0.8-5.8,2.5c-1.6,1.7-2.4,3.6-2.4,5.9c0,2.3,0.8,4.3,2.4,5.9
			c1.6,1.7,3.5,2.5,5.8,2.5C683,699.2,685,698.2,686.7,696.3z"/>
		<path class="st2" d="M717.1,700.3h-1.6v-17.6h-6.7v-1.5h14.9v1.5h-6.6V700.3z"/>
		<path class="st2" d="M747.9,700.3h-1.5v-19.1h1.6v16.4h0l12.2-16.4h1.5v19.1h-1.6v-16.3h0L747.9,700.3z"/>
	</g>
</g>
</svg>
